<svg t="1718555439244" class="icon" viewBox="0 0 1024 1024" version="1.1" xmlns="http://www.w3.org/2000/svg" p-id="5931" width="128" height="128"><path d="M659.000889 7.395556c-12.515556 17.521778-80.099556 47.559111-137.671111 60.074666-72.590222 15.018667-110.136889 27.534222-147.683556 47.559111C323.584 145.066667 296.049778 182.613333 301.056 217.656889c2.503111 7.509333 62.577778 95.118222 132.664889 195.242667 72.590222 100.124444 132.664889 185.230222 135.168 187.733333 2.503111 5.006222-7.509333 5.006222-42.552889 2.503111-110.136889-7.509333-210.261333 50.062222-255.317333 140.174222-12.515556 27.534222-15.018667 42.552889-15.018667 75.093334 0 75.093333 40.049778 135.168 115.143111 170.211555 30.037333 12.515556 40.049778 15.018667 102.627556 15.018667 67.584 0 70.087111 0 115.143111-22.528 120.149333-57.571556 170.211556-170.211556 120.149333-272.839111-10.012444-22.528-72.590222-130.161778-140.174222-240.298667L446.236444 265.216h20.024889c80.099556-5.006222 135.168-30.037333 172.714667-72.590222 32.540444-37.546667 42.552889-75.093333 40.049778-135.168-2.503111-55.068444-7.509333-67.584-20.024889-50.062222z" fill="#1296db" p-id="5932"></path></svg>